<?xml version="1.0" encoding="UTF-8" standalone="no"?>
<!DOCTYPE svg PUBLIC "-//W3C//DTD SVG 1.1//EN" "http://www.w3.org/Graphics/SVG/1.1/DTD/svg11.dtd">
<svg width="100%" height="100%" viewBox="0 0 16 16" version="1.1" xmlns="http://www.w3.org/2000/svg" xmlns:xlink="http://www.w3.org/1999/xlink" xml:space="preserve" xmlns:serif="http://www.serif.com/" style="fill-rule:evenodd;clip-rule:evenodd;stroke-linejoin:round;stroke-miterlimit:2;">
    <g>
        <path d="M2.188,1C0.98,1 0,2.016 0,3.219L0,12.781C0,13.984 0.98,15 2.188,15L13.813,15C15.02,15 16,13.984 16,12.781L16,3.219C16,2.016 15.02,1 13.813,1L2.188,1ZM2.188,3L13.813,3C13.934,3 14,3.082 14,3.219L14,12.781C14,12.918 13.934,13 13.813,13L2.188,13C2.066,13 2,12.918 2,12.781L2,3.219C2,3.082 2.066,3 2.188,3Z" style="fill-rule:nonzero;"/>
        <g transform="matrix(0.771754,0,0,0.860039,-17.6682,-43.6781)">
            <path d="M32.353,60.703C32.353,59.068 30.494,59.134 29.307,58.553C29.102,58.454 29.006,58.322 29.006,58.169C29.006,57.741 29.535,57.719 30.194,57.719C30.626,57.719 31.31,57.852 31.97,58.028L32.353,56.942C31.802,56.799 31.161,56.644 30.668,56.6L30.668,55.437L29.372,55.437L29.372,56.611C28.256,56.742 27.688,57.17 27.688,58.114C27.688,59.825 29.535,59.781 30.794,60.374C30.963,60.451 31.047,60.549 31.047,60.681C31.047,61.175 30.506,61.23 29.835,61.23C29.175,61.23 28.684,61.057 28.12,60.881L27.688,61.989C28.348,62.263 28.687,62.359 29.372,62.414L29.372,63.576L30.668,63.576L30.668,62.359C31.749,62.183 32.353,61.679 32.353,60.703Z" style="fill-rule:nonzero;"/>
        </g>
    </g>
</svg>
